<svg xmlns="http://www.w3.org/2000/svg" width="128" height="128" viewBox="0 0 128 128">
  <defs>
    <linearGradient id="beam" x1="0" y1="0" x2="0" y2="1">
      <stop offset="0%" stop-color="#00d4ff" stop-opacity="0"/>
      <stop offset="50%" stop-color="#00d4ff" stop-opacity="0.12"/>
      <stop offset="100%" stop-color="#00d4ff" stop-opacity="0.04"/>
    </linearGradient>
  </defs>
  <!-- Projection beam -->
  <polygon points="40,110 88,110 100,20 28,20" fill="url(#beam)"/>
  <!-- Floating data particles in beam -->
  <circle cx="50" cy="38" r="1.5" fill="#00d4ff" opacity="0.5"/>
  <circle cx="74" cy="42" r="1" fill="#00d4ff" opacity="0.4"/>
  <circle cx="58" cy="56" r="2" fill="#00d4ff" opacity="0.35"/>
  <circle cx="78" cy="54" r="1" fill="#00d4ff" opacity="0.3"/>
  <circle cx="46" cy="68" r="1.5" fill="#00d4ff" opacity="0.4"/>
  <circle cx="82" cy="66" r="1" fill="#00d4ff" opacity="0.25"/>
  <circle cx="55" cy="78" r="2" fill="#00d4ff" opacity="0.3"/>
  <circle cx="72" cy="82" r="1.5" fill="#00d4ff" opacity="0.35"/>
  <circle cx="62" cy="94" r="1" fill="#00d4ff" opacity="0.2"/>
  <circle cx="44" cy="88" r="1.5" fill="#00d4ff" opacity="0.25"/>
  <circle cx="80" cy="74" r="1.5" fill="#ff4400" opacity="0.2"/>
  <circle cx="52" cy="48" r="1" fill="#ff4400" opacity="0.15"/>
  <circle cx="68" cy="62" r="1" fill="#ff4400" opacity="0.15"/>
  <!-- Base platform -->
  <ellipse cx="64" cy="112" rx="32" ry="6" fill="none" stroke="#00d4ff" stroke-width="1.5" opacity="0.4"/>
  <!-- Projected sphere -->
  <circle cx="64" cy="48" r="24" fill="none" stroke="#00d4ff" stroke-width="1.5" opacity="0.5"/>
  <ellipse cx="64" cy="48" rx="24" ry="8" fill="none" stroke="#00d4ff" stroke-width="0.7" opacity="0.25"/>
  <ellipse cx="64" cy="48" rx="10" ry="24" fill="none" stroke="#00d4ff" stroke-width="0.7" opacity="0.25"/>
  <!-- Core -->
  <circle cx="64" cy="48" r="6" fill="#ff4400" opacity="0.6"/>
  <circle cx="64" cy="48" r="3" fill="#fff" opacity="0.8"/>
</svg>
